<svg width="33" height="32" fill="none" xmlns="http://www.w3.org/2000/svg"><path d="M31.5 16.067V12.6c0-3.36 0-5.04-.654-6.324a6 6 0 0 0-2.622-2.622C26.94 3 25.26 3 21.9 3H11.1c-3.36 0-5.04 0-6.324.654a6 6 0 0 0-2.622 2.622C1.5 7.56 1.5 9.24 1.5 12.6v8.8c0 3.36 0 5.04.654 6.324a6 6 0 0 0 2.622 2.622C6.06 31 7.74 31 11.1 31h5.4M8.5 1v5M17.5 1v5M25.5 1v5" stroke="#A89C88" stroke-width="2" stroke-linecap="round"/><circle cx="8" cy="13.5" r="1.5" fill="#A89C88"/><circle cx="14" cy="13.5" r="1.5" fill="#A89C88"/><circle cx="20" cy="13.5" r="1.5" fill="#A89C88"/><circle cx="26" cy="13.5" r="1.5" fill="#A89C88"/><circle cx="8" cy="18.5" r="1.5" fill="#A89C88"/><circle cx="14" cy="18.5" r="1.5" fill="#A89C88"/><circle cx="8" cy="23.5" r="1.5" fill="#A89C88"/><circle cx="14" cy="23.5" r="1.5" fill="#A89C88"/><circle cx="25" cy="24.5" r="6.5" stroke="#A89C88" stroke-width="2"/><path d="M24.5 22v3H26" stroke="#A89C88" stroke-width="2" stroke-linecap="round" stroke-linejoin="round"/></svg>