<svg width="32" height="32" fill="none" xmlns="http://www.w3.org/2000/svg"><path d="M18 18a2 2 0 1 1-4 0 2 2 0 0 1 4 0Zm-2.543 0a.543.543 0 1 0 1.086 0 .543.543 0 0 0-1.086 0Z" fill="#A89C88"/><circle cx="16" cy="18" r="13" stroke="#A89C88" stroke-width="2"/><path d="M16 9c0-.552.449-1.005.998-.95a10 10 0 0 1 8.952 8.952c.055.55-.398.998-.95.998h-3.976c-.552 0-.988-.454-1.124-.99a4.026 4.026 0 0 0-2.91-2.91c-.536-.136-.99-.572-.99-1.124V9Z" fill="#A89C88"/><rect x="11" width="10" height="3" rx="1.5" fill="#A89C88"/><path fill="#A89C88" d="M14 1h4v4h-4z"/><rect x="5.456" y="2.189" width="6.85" height="3.196" rx="1.598" transform="rotate(45 5.456 2.19)" fill="#A89C88"/><rect width="6.521" height="3.196" rx="1.598" transform="scale(-1 1) rotate(45 -15.983 -31.111)" fill="#A89C88"/><rect x="15" y="26" width="2" height="3" rx="1" fill="#A89C88"/><rect x="8" y="17" width="2" height="3" rx="1" transform="rotate(90 8 17)" fill="#A89C88"/></svg>