<svg width="32" height="32" viewBox="0 0 32 32" fill="none" xmlns="http://www.w3.org/2000/svg">
<path d="M18 18C18 19.1046 17.1046 20 16 20C14.8954 20 14 19.1046 14 18C14 16.8954 14.8954 16 16 16C17.1046 16 18 16.8954 18 18ZM15.4568 18C15.4568 18.3 15.7 18.5432 16 18.5432C16.3 18.5432 16.5432 18.3 16.5432 18C16.5432 17.7 16.3 17.4568 16 17.4568C15.7 17.4568 15.4568 17.7 15.4568 18Z" fill="#67AE3D"/>
<circle cx="16" cy="18" r="13" stroke="#67AE3D" stroke-width="2"/>
<path d="M16 9C16 8.44772 16.4488 7.99482 16.9983 8.04996C17.9691 8.14736 18.9222 8.38648 19.8268 8.7612C21.0401 9.26375 22.1425 10.0003 23.0711 10.9289C23.9997 11.8575 24.7362 12.9599 25.2388 14.1732C25.6135 15.0778 25.8526 16.0309 25.95 17.0017C26.0052 17.5512 25.5523 18 25 18L21.0239 18C20.4716 18 20.0361 17.5456 19.9003 17.0103C19.8528 16.8231 19.7918 16.6393 19.7176 16.4601C19.5154 15.9719 19.219 15.5283 18.8453 15.1547C18.4717 14.781 18.0281 14.4846 17.5399 14.2824C17.3607 14.2082 17.1769 14.1472 16.9897 14.0997C16.4544 13.9639 16 13.5284 16 12.9761L16 9Z" fill="#67AE3D"/>
<rect x="11" width="10" height="3" rx="1.5" fill="#67AE3D"/>
<rect x="14" y="1" width="4" height="4" fill="#67AE3D"/>
<rect x="5.45639" y="2.18909" width="6.85008" height="3.19584" rx="1.59792" transform="rotate(45 5.45639 2.18909)" fill="#67AE3D"/>
<rect width="6.52091" height="3.19584" rx="1.59792" transform="matrix(-0.707107 0.707107 0.707107 0.707107 26.6801 2.18909)" fill="#67AE3D"/>
<rect x="15" y="26" width="2" height="3" rx="1" fill="#67AE3D"/>
<rect x="8" y="17" width="2" height="3" rx="1" transform="rotate(90 8 17)" fill="#67AE3D"/>
</svg>
